<mxfile host="Electron" agent="Mozilla/5.0 (X11; Linux x86_64) AppleWebKit/537.36 (KHTML, like Gecko) draw.io/26.0.9 Chrome/128.0.6613.186 Electron/32.2.5 Safari/537.36" version="26.0.9">
  <diagram name="Page-1" id="hrxnBAGV2DYQK7GCQCX2">
    <mxGraphModel dx="658" dy="487" grid="1" gridSize="10" guides="1" tooltips="1" connect="1" arrows="1" fold="1" page="1" pageScale="1" pageWidth="850" pageHeight="1100" math="0" shadow="0">
      <root>
        <mxCell id="0" />
        <mxCell id="1" parent="0" />
        <mxCell id="qYVpJTT5gWakRwirlX3x-1" value="" style="strokeWidth=2;html=1;shape=mxgraph.flowchart.start_2;whiteSpace=wrap;fillColor=#000000;" vertex="1" parent="1">
          <mxGeometry x="214" y="90" width="50" height="50" as="geometry" />
        </mxCell>
        <mxCell id="qYVpJTT5gWakRwirlX3x-3" value="" style="endArrow=classic;html=1;rounded=0;exitX=0.5;exitY=1;exitDx=0;exitDy=0;exitPerimeter=0;" edge="1" parent="1" source="qYVpJTT5gWakRwirlX3x-1">
          <mxGeometry width="50" height="50" relative="1" as="geometry">
            <mxPoint x="404" y="370" as="sourcePoint" />
            <mxPoint x="239" y="190" as="targetPoint" />
          </mxGeometry>
        </mxCell>
        <mxCell id="qYVpJTT5gWakRwirlX3x-4" value="Aproach the employee on the register" style="rounded=1;whiteSpace=wrap;html=1;" vertex="1" parent="1">
          <mxGeometry x="179" y="190" width="120" height="60" as="geometry" />
        </mxCell>
        <mxCell id="qYVpJTT5gWakRwirlX3x-5" value="" style="endArrow=classic;html=1;rounded=0;exitX=0.5;exitY=1;exitDx=0;exitDy=0;exitPerimeter=0;" edge="1" parent="1">
          <mxGeometry width="50" height="50" relative="1" as="geometry">
            <mxPoint x="239" y="250" as="sourcePoint" />
            <mxPoint x="239" y="300" as="targetPoint" />
          </mxGeometry>
        </mxCell>
        <mxCell id="qYVpJTT5gWakRwirlX3x-6" value="Ask for the reserved tickets" style="rounded=1;whiteSpace=wrap;html=1;" vertex="1" parent="1">
          <mxGeometry x="179" y="300" width="120" height="60" as="geometry" />
        </mxCell>
        <mxCell id="qYVpJTT5gWakRwirlX3x-7" value="" style="endArrow=classic;html=1;rounded=0;exitX=1;exitY=0.5;exitDx=0;exitDy=0;" edge="1" parent="1" source="qYVpJTT5gWakRwirlX3x-6">
          <mxGeometry width="50" height="50" relative="1" as="geometry">
            <mxPoint x="450" y="270" as="sourcePoint" />
            <mxPoint x="400" y="330" as="targetPoint" />
          </mxGeometry>
        </mxCell>
        <mxCell id="qYVpJTT5gWakRwirlX3x-8" value="Receive data" style="rounded=1;whiteSpace=wrap;html=1;" vertex="1" parent="1">
          <mxGeometry x="400" y="300" width="120" height="60" as="geometry" />
        </mxCell>
        <mxCell id="qYVpJTT5gWakRwirlX3x-9" value="" style="endArrow=classic;html=1;rounded=0;exitX=0.5;exitY=1;exitDx=0;exitDy=0;exitPerimeter=0;" edge="1" parent="1">
          <mxGeometry width="50" height="50" relative="1" as="geometry">
            <mxPoint x="460" y="360" as="sourcePoint" />
            <mxPoint x="460" y="410" as="targetPoint" />
          </mxGeometry>
        </mxCell>
        <mxCell id="qYVpJTT5gWakRwirlX3x-10" value="Check the system" style="rounded=1;whiteSpace=wrap;html=1;" vertex="1" parent="1">
          <mxGeometry x="400" y="410" width="120" height="60" as="geometry" />
        </mxCell>
        <mxCell id="qYVpJTT5gWakRwirlX3x-11" value="" style="endArrow=classic;html=1;rounded=0;exitX=1;exitY=0.5;exitDx=0;exitDy=0;" edge="1" parent="1">
          <mxGeometry width="50" height="50" relative="1" as="geometry">
            <mxPoint x="520" y="440" as="sourcePoint" />
            <mxPoint x="621" y="440" as="targetPoint" />
          </mxGeometry>
        </mxCell>
        <mxCell id="qYVpJTT5gWakRwirlX3x-12" value="Verify reservation status" style="rounded=1;whiteSpace=wrap;html=1;" vertex="1" parent="1">
          <mxGeometry x="621" y="410" width="120" height="60" as="geometry" />
        </mxCell>
        <mxCell id="qYVpJTT5gWakRwirlX3x-13" value="" style="endArrow=classic;html=1;rounded=0;exitX=0.5;exitY=1;exitDx=0;exitDy=0;exitPerimeter=0;" edge="1" parent="1">
          <mxGeometry width="50" height="50" relative="1" as="geometry">
            <mxPoint x="680" y="470" as="sourcePoint" />
            <mxPoint x="680" y="520" as="targetPoint" />
          </mxGeometry>
        </mxCell>
        <mxCell id="qYVpJTT5gWakRwirlX3x-14" value="Return result" style="rounded=1;whiteSpace=wrap;html=1;" vertex="1" parent="1">
          <mxGeometry x="620" y="520" width="120" height="60" as="geometry" />
        </mxCell>
        <mxCell id="qYVpJTT5gWakRwirlX3x-15" value="" style="endArrow=classic;html=1;rounded=0;exitX=0;exitY=0.5;exitDx=0;exitDy=0;entryX=1;entryY=0.5;entryDx=0;entryDy=0;" edge="1" parent="1" source="qYVpJTT5gWakRwirlX3x-14" target="qYVpJTT5gWakRwirlX3x-16">
          <mxGeometry width="50" height="50" relative="1" as="geometry">
            <mxPoint x="520" y="530" as="sourcePoint" />
            <mxPoint x="621" y="530" as="targetPoint" />
          </mxGeometry>
        </mxCell>
        <mxCell id="qYVpJTT5gWakRwirlX3x-16" value="Check result" style="rounded=1;whiteSpace=wrap;html=1;" vertex="1" parent="1">
          <mxGeometry x="400" y="520" width="120" height="60" as="geometry" />
        </mxCell>
        <mxCell id="qYVpJTT5gWakRwirlX3x-18" value="" style="strokeWidth=2;html=1;shape=mxgraph.flowchart.decision;whiteSpace=wrap;" vertex="1" parent="1">
          <mxGeometry x="440" y="620" width="40" height="40" as="geometry" />
        </mxCell>
        <mxCell id="qYVpJTT5gWakRwirlX3x-19" value="" style="endArrow=classic;html=1;rounded=0;entryX=0.5;entryY=0;entryDx=0;entryDy=0;entryPerimeter=0;exitX=0.5;exitY=1;exitDx=0;exitDy=0;" edge="1" parent="1" source="qYVpJTT5gWakRwirlX3x-16" target="qYVpJTT5gWakRwirlX3x-18">
          <mxGeometry width="50" height="50" relative="1" as="geometry">
            <mxPoint x="440" y="530" as="sourcePoint" />
            <mxPoint x="490" y="480" as="targetPoint" />
          </mxGeometry>
        </mxCell>
        <mxCell id="qYVpJTT5gWakRwirlX3x-20" value="" style="endArrow=classic;html=1;rounded=0;exitX=0;exitY=0.5;exitDx=0;exitDy=0;exitPerimeter=0;" edge="1" parent="1" source="qYVpJTT5gWakRwirlX3x-18">
          <mxGeometry width="50" height="50" relative="1" as="geometry">
            <mxPoint x="410" y="670" as="sourcePoint" />
            <mxPoint x="391" y="680" as="targetPoint" />
            <Array as="points">
              <mxPoint x="391" y="640" />
            </Array>
          </mxGeometry>
        </mxCell>
        <mxCell id="qYVpJTT5gWakRwirlX3x-21" value="sell the ticket" style="rounded=1;whiteSpace=wrap;html=1;" vertex="1" parent="1">
          <mxGeometry x="331" y="680" width="120" height="60" as="geometry" />
        </mxCell>
        <mxCell id="qYVpJTT5gWakRwirlX3x-22" value="is reserved" style="text;html=1;align=center;verticalAlign=middle;whiteSpace=wrap;rounded=0;" vertex="1" parent="1">
          <mxGeometry x="366.5" y="619" width="85" height="30" as="geometry" />
        </mxCell>
        <mxCell id="qYVpJTT5gWakRwirlX3x-23" value="" style="endArrow=classic;html=1;rounded=0;exitX=1;exitY=0.5;exitDx=0;exitDy=0;exitPerimeter=0;entryX=0.5;entryY=0;entryDx=0;entryDy=0;" edge="1" parent="1" source="qYVpJTT5gWakRwirlX3x-18" target="qYVpJTT5gWakRwirlX3x-24">
          <mxGeometry width="50" height="50" relative="1" as="geometry">
            <mxPoint x="460" y="710" as="sourcePoint" />
            <mxPoint x="530" y="680" as="targetPoint" />
            <Array as="points">
              <mxPoint x="530" y="640" />
            </Array>
          </mxGeometry>
        </mxCell>
        <mxCell id="qYVpJTT5gWakRwirlX3x-24" value="Cancel the operation" style="rounded=1;whiteSpace=wrap;html=1;" vertex="1" parent="1">
          <mxGeometry x="470" y="750" width="120" height="60" as="geometry" />
        </mxCell>
        <mxCell id="qYVpJTT5gWakRwirlX3x-25" value="is not reserved" style="text;html=1;align=center;verticalAlign=middle;whiteSpace=wrap;rounded=0;" vertex="1" parent="1">
          <mxGeometry x="478.5" y="619" width="85" height="30" as="geometry" />
        </mxCell>
        <mxCell id="qYVpJTT5gWakRwirlX3x-26" value="Retrieve ticket" style="rounded=1;whiteSpace=wrap;html=1;" vertex="1" parent="1">
          <mxGeometry x="179" y="680" width="120" height="60" as="geometry" />
        </mxCell>
        <mxCell id="qYVpJTT5gWakRwirlX3x-27" value="" style="endArrow=classic;html=1;rounded=0;exitX=0;exitY=0.5;exitDx=0;exitDy=0;" edge="1" parent="1" source="qYVpJTT5gWakRwirlX3x-21">
          <mxGeometry width="50" height="50" relative="1" as="geometry">
            <mxPoint x="330" y="700" as="sourcePoint" />
            <mxPoint x="300" y="710" as="targetPoint" />
          </mxGeometry>
        </mxCell>
        <mxCell id="qYVpJTT5gWakRwirlX3x-28" value="" style="endArrow=classic;html=1;rounded=0;exitX=0.5;exitY=1;exitDx=0;exitDy=0;entryX=0.5;entryY=0;entryDx=0;entryDy=0;entryPerimeter=0;" edge="1" parent="1" source="qYVpJTT5gWakRwirlX3x-26" target="qYVpJTT5gWakRwirlX3x-29">
          <mxGeometry width="50" height="50" relative="1" as="geometry">
            <mxPoint x="254.5" y="770" as="sourcePoint" />
            <mxPoint x="223.5" y="770" as="targetPoint" />
          </mxGeometry>
        </mxCell>
        <mxCell id="qYVpJTT5gWakRwirlX3x-29" value="" style="strokeWidth=2;html=1;shape=mxgraph.flowchart.start_2;whiteSpace=wrap;fillColor=#000000;" vertex="1" parent="1">
          <mxGeometry x="214" y="790" width="50" height="50" as="geometry" />
        </mxCell>
        <mxCell id="qYVpJTT5gWakRwirlX3x-30" value="" style="endArrow=none;html=1;rounded=0;entryX=0;entryY=0.5;entryDx=0;entryDy=0;" edge="1" parent="1" target="qYVpJTT5gWakRwirlX3x-24">
          <mxGeometry width="50" height="50" relative="1" as="geometry">
            <mxPoint x="240" y="780" as="sourcePoint" />
            <mxPoint x="390" y="780" as="targetPoint" />
          </mxGeometry>
        </mxCell>
        <mxCell id="qYVpJTT5gWakRwirlX3x-31" value="Client" style="swimlane;whiteSpace=wrap;html=1;" vertex="1" parent="1">
          <mxGeometry x="160" y="50" width="160" height="820" as="geometry" />
        </mxCell>
        <mxCell id="qYVpJTT5gWakRwirlX3x-32" value="Employee" style="swimlane;whiteSpace=wrap;html=1;" vertex="1" parent="1">
          <mxGeometry x="320" y="50" width="280" height="820" as="geometry" />
        </mxCell>
        <mxCell id="qYVpJTT5gWakRwirlX3x-33" value="System" style="swimlane;whiteSpace=wrap;html=1;" vertex="1" parent="1">
          <mxGeometry x="601" y="50" width="160" height="820" as="geometry" />
        </mxCell>
      </root>
    </mxGraphModel>
  </diagram>
</mxfile>
